M48
; DRILL file {KiCad 7.0.8} date 2023 November 03, Friday 07:49:23
; FORMAT={-:-/ absolute / metric / decimal}
; #@! TF.CreationDate,2023-11-03T07:49:23+09:00
; #@! TF.GenerationSoftware,Kicad,Pcbnew,7.0.8
; #@! TF.FileFunction,Plated,1,2,PTH
FMAT,2
METRIC
; #@! TA.AperFunction,Plated,PTH,ViaDrill
T1C0.400
; #@! TA.AperFunction,Plated,PTH,ComponentDrill
T2C0.500
; #@! TA.AperFunction,Plated,PTH,ComponentDrill
T3C0.813
; #@! TA.AperFunction,Plated,PTH,ComponentDrill
T4C0.900
; #@! TA.AperFunction,Plated,PTH,ComponentDrill
T5C1.300
%
G90
G05
T1
X49.56Y-219.03
X52.48Y-203.9
X63.94Y-202.72
X66.294Y-203.97
X67.06Y-202.72
X69.32Y-218.02
X71.79Y-202.32
X74.45Y-181.27
X86.67Y-202.32
X88.41Y-194.08
X88.49Y-181.19
X89.53Y-220.52
X91.91Y-194.14
X94.79Y-212.29
X96.02Y-211.13
X97.75Y-218.27
X99.05Y-219.0
X105.11Y-211.07
X106.34Y-211.14
X107.52Y-221.4
X122.47Y-219.05
X123.71Y-218.1
X126.16Y-222.66
X156.05Y-188.34
X169.73Y-184.41
X170.42Y-225.88
X170.44Y-224.23
X170.79Y-222.69
X171.225Y-221.3
X171.75Y-201.65
X174.7Y-237.74
X174.86Y-236.01
X179.44Y-236.11
X181.91Y-237.67
X185.45Y-188.335
X186.64Y-229.527
X187.48Y-185.63
X188.15Y-182.45
X188.67Y-201.56
X188.75Y-220.05
X190.09Y-218.92
X192.75Y-221.31
X202.22Y-229.505
X204.71Y-182.22
X206.12Y-180.87
X208.82Y-217.84
X211.47Y-222.61
X225.83Y-222.95
X226.05Y-182.93
X226.61Y-221.53
X229.27Y-218.84
X229.29Y-212.66
X229.29Y-216.81
X229.311Y-217.809
X241.98Y-180.81
X242.003Y-181.809
X242.01Y-179.69
X242.031Y-182.808
X247.53Y-217.08
X248.15Y-214.7
X248.98Y-219.91
X249.05Y-213.87
T3
X65.837Y-222.456
X65.867Y-227.566
X65.867Y-230.216
X65.877Y-220.176
X65.897Y-224.836
X73.457Y-222.456
X73.487Y-227.566
X73.487Y-230.216
X73.497Y-220.176
X73.517Y-224.836
X76.687Y-222.576
X76.697Y-225.016
X76.697Y-227.666
X76.697Y-230.316
X76.827Y-220.326
X84.307Y-222.576
X84.317Y-225.016
X84.317Y-227.666
X84.317Y-230.316
X84.447Y-220.326
X147.255Y-213.92
X147.255Y-216.32
X147.255Y-218.97
X147.255Y-221.62
X147.255Y-224.27
X147.255Y-226.88
X147.255Y-228.95
X147.255Y-231.604
X148.38Y-156.54
X148.38Y-159.08
X148.38Y-161.62
X148.38Y-164.16
X148.38Y-166.7
X148.38Y-169.24
X148.38Y-171.78
X148.38Y-174.32
X148.38Y-176.86
X148.38Y-179.4
X148.38Y-181.94
X148.38Y-184.48
X148.38Y-187.02
X154.875Y-213.92
X154.875Y-216.32
X154.875Y-218.97
X154.875Y-221.62
X154.875Y-224.27
X154.875Y-226.88
X154.875Y-228.95
X154.875Y-231.604
X157.852Y-213.766
X157.892Y-224.076
X157.967Y-216.236
X157.967Y-218.886
X157.967Y-221.536
X158.0Y-231.43
X158.004Y-229.066
X158.02Y-226.48
X163.6Y-156.54
X163.6Y-159.08
X163.6Y-161.62
X163.6Y-164.16
X163.6Y-166.7
X163.6Y-169.24
X163.6Y-171.78
X163.6Y-174.32
X163.6Y-176.86
X163.6Y-179.4
X163.6Y-181.94
X163.6Y-184.48
X163.6Y-187.02
X165.472Y-213.766
X165.512Y-224.076
X165.587Y-216.236
X165.587Y-218.886
X165.587Y-221.536
X165.62Y-231.43
X165.624Y-229.066
X165.64Y-226.48
X183.338Y-165.501
X185.457Y-180.573
X227.837Y-220.296
X227.937Y-222.846
X227.937Y-225.496
X227.937Y-228.146
X227.937Y-230.796
X235.457Y-220.296
X235.557Y-222.846
X235.557Y-225.496
X235.557Y-228.146
X235.557Y-230.796
X238.737Y-230.576
X238.797Y-220.106
X238.797Y-222.756
X238.797Y-225.406
X238.797Y-228.056
X246.357Y-230.576
X246.417Y-220.106
X246.417Y-222.756
X246.417Y-225.406
X246.417Y-228.056
T4
X147.971Y-197.255
X166.994Y-209.705
X168.264Y-207.505
T5
X147.38Y-190.73
X153.88Y-190.73
T2
G00X255.861Y-165.302
M15
G01X255.903Y-165.599
M16
G05
G00X256.209Y-167.778
M15
G01X256.251Y-168.075
M16
G05
G00X256.557Y-170.253
M15
G01X256.599Y-170.55
M16
G05
T0
M30
